# xmcd
# 
# Track frame offsets:
#     150
#     20002
#     33086
#     54734
#     78083
#     99273
#     122890
#     152757
#     179959
#     184862
#     203551
#     224011
#     244964
#     267434
#     281008
#     315549
# 
# Disc length: 4561
# 
# Revision: 2
# Processed by: cddbd v1.5.2PL0 Copyright (c) Steve Scherf et al.
# Submitted via: fre:ac v1.0.31
# 
DISCID=ea11cf10
DTITLE=Z.Z.Top - Live From Texas
DYEAR=2008
DGENRE=Rock/Pop
TTITLE0=Got Me Under Pressure
TTITLE1=Waitin' For The Bus
TTITLE2=Jesus Just Left Chicago
TTITLE3=I'm Bad, I'm Nationwide
TTITLE4=Cheap Sunglasses
TTITLE5=Pearl Necklace
TTITLE6=Just Got Paid
TTITLE7=Rough Boy
TTITLE8=Blues Intro
TTITLE9=Blue Jean Blues
TTITLE10=Gimme All Your Lovin'
TTITLE11=Sharp Dressed Man
TTITLE12=Legs
TTITLE13=Tube Snake Boogie
TTITLE14=La Grange
TTITLE15=Tush
EXTD=YEAR: 2008
EXTT0=
EXTT1=
EXTT2=
EXTT3=
EXTT4=
EXTT5=
EXTT6=
EXTT7=
EXTT8=
EXTT9=
EXTT10=
EXTT11=
EXTT12=
EXTT13=
EXTT14=
EXTT15=
PLAYORDER=
